<?xml version="1.0" encoding="UTF-8" standalone="no"?>
<!-- Created with Inkscape (http://www.inkscape.org/) -->

<svg
   version="1.1"
   id="svg2"
   width="512"
   height="512"
   viewBox="0 0 512 512"
   sodipodi:docname="foreign_object_body.svg"
   inkscape:version="1.1.1 (3bf5ae0d25, 2021-09-20)"
   xmlns:inkscape="http://www.inkscape.org/namespaces/inkscape"
   xmlns:sodipodi="http://sodipodi.sourceforge.net/DTD/sodipodi-0.dtd"
   xmlns="http://www.w3.org/2000/svg"
   xmlns:svg="http://www.w3.org/2000/svg">
  <defs
     id="defs6">
    <filter
       style="color-interpolation-filters:sRGB;"
       inkscape:label="Drop Shadow"
       id="filter1456"
       x="-0.25219632"
       y="-0.15892701"
       width="1.4910013"
       height="1.3094353">
      <feFlood
         flood-opacity="1"
         flood-color="rgb(58,63,94)"
         result="flood"
         id="feFlood1446" />
      <feComposite
         in="flood"
         in2="SourceGraphic"
         operator="out"
         result="composite1"
         id="feComposite1448" />
      <feGaussianBlur
         in="composite1"
         stdDeviation="30"
         result="blur"
         id="feGaussianBlur1450" />
      <feOffset
         dx="-4.0375"
         dy="-4.02735"
         result="offset"
         id="feOffset1452" />
      <feComposite
         in="offset"
         in2="SourceGraphic"
         operator="atop"
         result="composite2"
         id="feComposite1454" />
    </filter>
    <filter
       style="color-interpolation-filters:sRGB;"
       inkscape:label="Drop Shadow"
       id="filter1444"
       x="-1.1131495"
       y="-0.84658487"
       width="3.1677123"
       height="2.6486126">
      <feFlood
         flood-opacity="1"
         flood-color="rgb(58,63,94)"
         result="flood"
         id="feFlood1434" />
      <feComposite
         in="flood"
         in2="SourceGraphic"
         operator="out"
         result="composite1"
         id="feComposite1436" />
      <feGaussianBlur
         in="composite1"
         stdDeviation="30"
         result="blur"
         id="feGaussianBlur1438" />
      <feOffset
         dx="-4"
         dy="-4"
         result="offset"
         id="feOffset1440" />
      <feComposite
         in="offset"
         in2="SourceGraphic"
         operator="atop"
         result="composite2"
         id="feComposite1442" />
    </filter>
    <filter
       style="color-interpolation-filters:sRGB;"
       inkscape:label="Drop Shadow"
       id="filter1044"
       x="-0.17375995"
       y="-0.13214985"
       width="1.3475199"
       height="1.2642997">
      <feFlood
         flood-opacity="1"
         flood-color="rgb(58,63,94)"
         result="flood"
         id="feFlood1034" />
      <feComposite
         in="flood"
         in2="SourceGraphic"
         operator="out"
         result="composite1"
         id="feComposite1036" />
      <feGaussianBlur
         in="composite1"
         stdDeviation="4.94309"
         result="blur"
         id="feGaussianBlur1038" />
      <feOffset
         dx="0"
         dy="0"
         result="offset"
         id="feOffset1040" />
      <feComposite
         in="offset"
         in2="SourceGraphic"
         operator="atop"
         result="composite2"
         id="feComposite1042" />
    </filter>
  </defs>
  <sodipodi:namedview
     id="namedview4"
     pagecolor="#505050"
     bordercolor="#eeeeee"
     borderopacity="1"
     inkscape:pageshadow="0"
     inkscape:pageopacity="0"
     inkscape:pagecheckerboard="0"
     showgrid="false"
     inkscape:zoom="1.8085085"
     inkscape:cx="253.52383"
     inkscape:cy="229.19439"
     inkscape:window-width="1716"
     inkscape:window-height="1414"
     inkscape:window-x="3160"
     inkscape:window-y="587"
     inkscape:window-maximized="1"
     inkscape:current-layer="g8967"
     showguides="true"
     inkscape:guide-bbox="true" />
  <g
     inkscape:groupmode="layer"
     inkscape:label="Image"
     id="g8">
    <g
       id="g845"
       style="fill:#000000">
      <g
         id="g8967"
         transform="matrix(0.9714848,0,0,0.9714848,495.57401,53.138526)">
        <g
           id="g893"
           transform="matrix(1.0293522,0,0,1.0293522,-510.12019,-54.698262)">
          <path
             d="M 0,0 H 512 V 512 H 0 Z"
             fill="#b90202"
             fill-opacity="1"
             id="path2"
             style="fill:#1b1f21;fill-opacity:1" />
        </g>
        <g
           id="g955"
           transform="matrix(5.4054541,0,0,5.4054541,-804.88981,-33.815086)"
           style="stroke:none;stroke-width:12.6325;stroke-linejoin:round;stroke-miterlimit:4;stroke-dasharray:none;stroke-opacity:1;paint-order:markers stroke fill;fill:#e64539;fill-opacity:1;filter:url(#filter1044)">
          <g
             id="g900"
             style="stroke:none;stroke-width:12.6325;stroke-linejoin:round;stroke-miterlimit:4;stroke-dasharray:none;stroke-opacity:1;paint-order:markers stroke fill;fill:#e64539;fill-opacity:1">
            <g
               id="g898"
               style="stroke:none;stroke-width:12.6325;stroke-linejoin:round;stroke-miterlimit:4;stroke-dasharray:none;stroke-opacity:1;paint-order:markers stroke fill;fill:#e64539;fill-opacity:1">
              <path
                 id="path896"
                 style="stroke:none;stroke-width:58.2892;stroke-linejoin:round;stroke-miterlimit:4;stroke-dasharray:none;stroke-opacity:1;paint-order:markers stroke fill;fill:#e64539;fill-opacity:1"
                 d="m 251.57227,48.884766 c 0,0 -51.04732,2.933564 -43.94141,60.394534 -0.0175,-0.074 0.67145,2.66018 -3.29883,3.38281 -5.24176,-0.13843 -5.73169,12.62997 5.60547,21.35547 0,0 2.63935,14.79249 9.49609,20.37109 0,0 4.72041,22.78563 -3.53906,34.67188 0,0 -5.40663,12.59569 -44.41992,18.40039 0,0 -38.64479,0.37869 -43.90039,52.73633 l -0.72852,76.75781 c 0,0 -2.81072,45.46359 -18.09765,69.83594 0,0 -9.24127,20.30556 -10.265628,56.32421 H 145.8418 c 7.70756,-16.97693 17.56533,-44.24133 16.50586,-63.30078 0,0 -0.37906,-30.17772 10.60742,-47.27343 0,0 7.42001,86.57562 2.13672,110.57421 h 160.63281 c -5.36635,-23.99398 2.27148,-110.55859 2.27148,-110.55859 10.98648,17.09571 10.56641,47.27148 10.56641,47.27148 -1.09528,19.87463 9.26877,46.34347 17.13086,63.28711 h 47.82422 c -1.0382,-36.02326 -11.40235,-56.31054 -11.40235,-56.31054 -15.22694,-24.37235 -18.09179,-69.83594 -18.09179,-69.83594 l -0.67383,-76.75781 c -5.33866,-52.35763 -43.91797,-52.73633 -43.91797,-52.73633 -38.99483,-5.8047 -44.42187,-18.40039 -44.42187,-18.40039 -8.25947,-11.88625 -3.53907,-34.67188 -3.53907,-34.67188 6.85213,-5.57398 9.4961,-20.37109 9.4961,-20.37109 11.37868,-8.7255 10.82201,-21.4939 5.5664,-21.35547 -4.17975,0.0534 -2.4218,-4.66567 -3.26367,-3.38281 7.11514,-57.474811 -43.9082,-60.408204 -43.9082,-60.408204 z m 3.44335,192.617184 c 14.20594,0 25.59418,3.74538 34.16407,11.23438 8.64709,7.489 12.9707,17.3707 12.9707,29.64648 0,5.86767 -1.3905,11.46575 -4.16992,16.79297 -2.77942,5.25002 -7.64324,11.19425 -14.5918,17.83399 l -10.1914,9.96093 c -3.62869,3.62869 -6.21565,6.4838 -7.75977,8.56836 -1.46692,2.00736 -2.50735,3.9761 -3.125,5.90625 -0.46324,1.62133 -0.81135,3.59202 -1.04297,5.90821 -0.23162,2.31618 -0.34765,5.48137 -0.34765,9.49609 v 14.24414 h -22.11915 v -17.83398 c 0,-7.79783 1.08042,-14.20621 3.24219,-19.22461 2.16177,-5.01841 6.71746,-10.84855 13.66602,-17.48828 l 10.42187,-10.30665 c 4.40075,-4.09192 7.56594,-7.95138 9.4961,-11.58007 2.00736,-3.62869 3.01171,-7.33604 3.01171,-11.11914 0,-6.87135 -2.54697,-12.42945 -7.64257,-16.67579 -5.0184,-4.24634 -11.69689,-6.36914 -20.03516,-6.36914 -6.09929,0 -12.62371,1.35052 -19.57227,4.05274 -6.87134,2.70221 -14.05201,6.63968 -21.54101,11.8125 v -21.77149 c 7.25738,-4.40075 14.59211,-7.68197 22.00391,-9.84375 7.48899,-2.16177 15.20987,-3.24414 23.1621,-3.24414 z m -16.9082,146.61524 h 23.50977 v 29.41601 h -23.50977 z"
                 transform="matrix(0.21672103,0,0,0.21672103,47.800985,-10.594255)" />
            </g>
          </g>
          <g
             id="g902"
             style="stroke:none;stroke-width:12.6325;stroke-linejoin:round;stroke-miterlimit:4;stroke-dasharray:none;stroke-opacity:1;paint-order:markers stroke fill;fill:#e64539;fill-opacity:1" />
          <g
             id="g904"
             style="stroke:none;stroke-width:12.6325;stroke-linejoin:round;stroke-miterlimit:4;stroke-dasharray:none;stroke-opacity:1;paint-order:markers stroke fill;fill:#e64539;fill-opacity:1" />
          <g
             id="g906"
             style="stroke:none;stroke-width:12.6325;stroke-linejoin:round;stroke-miterlimit:4;stroke-dasharray:none;stroke-opacity:1;paint-order:markers stroke fill;fill:#e64539;fill-opacity:1" />
          <g
             id="g908"
             style="stroke:none;stroke-width:12.6325;stroke-linejoin:round;stroke-miterlimit:4;stroke-dasharray:none;stroke-opacity:1;paint-order:markers stroke fill;fill:#e64539;fill-opacity:1" />
          <g
             id="g910"
             style="stroke:none;stroke-width:12.6325;stroke-linejoin:round;stroke-miterlimit:4;stroke-dasharray:none;stroke-opacity:1;paint-order:markers stroke fill;fill:#e64539;fill-opacity:1" />
          <g
             id="g912"
             style="stroke:none;stroke-width:12.6325;stroke-linejoin:round;stroke-miterlimit:4;stroke-dasharray:none;stroke-opacity:1;paint-order:markers stroke fill;fill:#e64539;fill-opacity:1" />
          <g
             id="g914"
             style="stroke:none;stroke-width:12.6325;stroke-linejoin:round;stroke-miterlimit:4;stroke-dasharray:none;stroke-opacity:1;paint-order:markers stroke fill;fill:#e64539;fill-opacity:1" />
          <g
             id="g916"
             style="stroke:none;stroke-width:12.6325;stroke-linejoin:round;stroke-miterlimit:4;stroke-dasharray:none;stroke-opacity:1;paint-order:markers stroke fill;fill:#e64539;fill-opacity:1" />
          <g
             id="g918"
             style="stroke:none;stroke-width:12.6325;stroke-linejoin:round;stroke-miterlimit:4;stroke-dasharray:none;stroke-opacity:1;paint-order:markers stroke fill;fill:#e64539;fill-opacity:1" />
          <g
             id="g920"
             style="stroke:none;stroke-width:12.6325;stroke-linejoin:round;stroke-miterlimit:4;stroke-dasharray:none;stroke-opacity:1;paint-order:markers stroke fill;fill:#e64539;fill-opacity:1" />
          <g
             id="g922"
             style="stroke:none;stroke-width:12.6325;stroke-linejoin:round;stroke-miterlimit:4;stroke-dasharray:none;stroke-opacity:1;paint-order:markers stroke fill;fill:#e64539;fill-opacity:1" />
          <g
             id="g924"
             style="stroke:none;stroke-width:12.6325;stroke-linejoin:round;stroke-miterlimit:4;stroke-dasharray:none;stroke-opacity:1;paint-order:markers stroke fill;fill:#e64539;fill-opacity:1" />
          <g
             id="g926"
             style="stroke:none;stroke-width:12.6325;stroke-linejoin:round;stroke-miterlimit:4;stroke-dasharray:none;stroke-opacity:1;paint-order:markers stroke fill;fill:#e64539;fill-opacity:1" />
          <g
             id="g928"
             style="stroke:none;stroke-width:12.6325;stroke-linejoin:round;stroke-miterlimit:4;stroke-dasharray:none;stroke-opacity:1;paint-order:markers stroke fill;fill:#e64539;fill-opacity:1" />
          <g
             id="g930"
             style="stroke:none;stroke-width:12.6325;stroke-linejoin:round;stroke-miterlimit:4;stroke-dasharray:none;stroke-opacity:1;paint-order:markers stroke fill;fill:#e64539;fill-opacity:1" />
        </g>
      </g>
    </g>
  </g>
</svg>
