<?xml version="1.0" encoding="UTF-8" standalone="no"?>
<svg
   style="height: 512px; width: 512px;"
   viewBox="0 0 512 512"
   version="1.1"
   id="svg2175"
   sodipodi:docname="vial_poison.svg"
   inkscape:version="1.1.1 (3bf5ae0d25, 2021-09-20)"
   xmlns:inkscape="http://www.inkscape.org/namespaces/inkscape"
   xmlns:sodipodi="http://sodipodi.sourceforge.net/DTD/sodipodi-0.dtd"
   xmlns="http://www.w3.org/2000/svg"
   xmlns:svg="http://www.w3.org/2000/svg">
  <defs
     id="defs2179">
    <filter
       style="color-interpolation-filters:sRGB;"
       inkscape:label="Drop Shadow"
       id="filter871"
       x="-0.42222603"
       y="-0.18845494"
       width="1.8222296"
       height="1.3669912">
      <feFlood
         flood-opacity="1"
         flood-color="rgb(58,63,94)"
         result="flood"
         id="feFlood861" />
      <feComposite
         in="flood"
         in2="SourceGraphic"
         operator="out"
         result="composite1"
         id="feComposite863" />
      <feGaussianBlur
         in="composite1"
         stdDeviation="30"
         result="blur"
         id="feGaussianBlur865" />
      <feOffset
         dx="-4"
         dy="-4"
         result="offset"
         id="feOffset867" />
      <feComposite
         in="offset"
         in2="SourceGraphic"
         operator="atop"
         result="composite2"
         id="feComposite869" />
    </filter>
    <filter
       style="color-interpolation-filters:sRGB;"
       inkscape:label="Drop Shadow"
       id="filter939"
       x="-0.29009328"
       y="-0.12947925"
       width="1.5801866"
       height="1.2589585">
      <feFlood
         flood-opacity="1"
         flood-color="rgb(58,63,94)"
         result="flood"
         id="feFlood929" />
      <feComposite
         in="flood"
         in2="SourceGraphic"
         operator="out"
         result="composite1"
         id="feComposite931" />
      <feGaussianBlur
         in="composite1"
         stdDeviation="21.7568"
         result="blur"
         id="feGaussianBlur933" />
      <feOffset
         dx="0"
         dy="0"
         result="offset"
         id="feOffset935" />
      <feComposite
         in="offset"
         in2="SourceGraphic"
         operator="atop"
         result="composite2"
         id="feComposite937" />
    </filter>
  </defs>
  <sodipodi:namedview
     id="namedview2177"
     pagecolor="#505050"
     bordercolor="#eeeeee"
     borderopacity="1"
     inkscape:pageshadow="0"
     inkscape:pageopacity="0"
     inkscape:pagecheckerboard="0"
     showgrid="false"
     inkscape:zoom="1.6559005"
     inkscape:cx="224.95313"
     inkscape:cy="232.19994"
     inkscape:window-width="1716"
     inkscape:window-height="1414"
     inkscape:window-x="3160"
     inkscape:window-y="587"
     inkscape:window-maximized="1"
     inkscape:current-layer="svg2175" />
  <path
     d="M0 0h512v512H0z"
     fill="#b90202"
     fill-opacity="1"
     id="path2169"
     style="fill:#1b1f21;fill-opacity:1" />
  <g
     class=""
     transform="matrix(1.1921983,0,0,1.1921983,-49.202765,-94.935492)"
     id="g2173"
     style="fill:#e64539;fill-opacity:1;filter:url(#filter939)">
    <path
       id="path2171"
       style="fill:#e64539;fill-opacity:1"
       d="m 148.70312,15.605469 18.03126,29.355469 V 411.5625 c 0,47.00361 39.81681,84.83203 89.26562,84.83203 49.44881,0 89.26562,-37.82842 89.26562,-84.83203 V 44.960938 l 18.03126,-29.355469 z m 38.03711,38.484375 H 325.25977 V 182.84766 H 186.74023 Z m 70.71289,200.679686 h 0.002 c 16.71001,0 27.33991,7.32796 34.51953,18.11914 6.63951,9.97695 9.87819,23.10409 10.33398,35.32031 -13.80281,6.72437 -21.71236,15.21963 -24.15234,24.78321 -0.46396,1.81557 -0.71615,3.63095 -0.79883,5.43945 -5.44617,2.35894 -12.59733,3.73719 -19.63281,3.73828 -7.93729,0.001 -15.66577,-1.79741 -20.56641,-4.58984 -0.0756,-1.61161 -0.31366,-3.22802 -0.71289,-4.8418 -2.33283,-9.43032 -10.23194,-17.5016 -23.84765,-24.46094 0.43458,-12.91624 3.74816,-26.0923 10.43554,-35.93164 7.1905,-10.57797 17.80618,-17.57617 34.41992,-17.57617 z m -16.25,40.72656 c -4.98021,0.001 -9.00781,4.02789 -9.00781,9.00782 0,4.98113 4.02723,9.02539 9.00781,9.02539 4.98114,0 9.0254,-4.04481 9.0254,-9.02539 0,-4.98047 -4.04377,-9.00675 -9.02344,-9.00782 z m 14.4668,18.27344 c -3.46316,7.20409 -5.64637,14.41287 -7.46289,21.61914 4.97569,-1.86344 9.94814,-1.6437 14.92383,0 -1.34331,-7.20439 -4.04843,-14.4142 -7.46094,-21.61914 z m -20.14258,34.51953 c 6.55032,2.92189 14.3394,4.13195 22.19727,4.13086 7.24815,-5.4e-4 14.58003,-1.06684 21.07812,-3.46875 1.05084,3.37225 2.60623,6.65592 4.53711,9.79102 -5.08121,3.71871 -14.82069,6.63165 -25.13867,6.74804 -10.49475,0.11749 -21.18302,-2.50376 -27.67187,-6.84961 2.12288,-3.40052 3.83625,-6.85965 4.99804,-10.35156 z m -38.43164,9.28125 c 33.98951,17.1582 86.40482,29.05208 123.26563,32.78711 1.38588,7.67458 -0.44161,13.93256 -5.42383,20.00586 -33.99005,-15.68094 -85.80785,-30.0297 -123.29688,-33.04297 -1.44887,-7.51632 0.615,-13.62164 5.45508,-19.75 z m 117.80664,0 c 4.84081,6.12824 6.90384,12.23316 5.45704,19.75 -3.9526,0.31819 -8.07198,0.76812 -12.30469,1.32617 -10.0444,-1.44027 -20.89721,-3.40275 -31.9375,-5.81445 14.13366,-4.43584 27.47774,-9.55329 38.78515,-15.26172 z m -110.82031,31.29102 c 10.31145,1.44898 21.47086,3.59979 32.82227,6.27148 -14.50881,4.65098 -28.21571,9.86556 -39.8418,15.22852 -4.98113,-6.07276 -6.80885,-12.32933 -5.42188,-20.00391 3.97871,-0.40249 8.14234,-0.90649 12.44141,-1.49609 z m 65.71778,-93.44582 c -4.98021,0 -9.00781,4.02789 -9.00781,9.00782 0,4.98113 4.02723,9.02539 9.00781,9.02539 4.98114,0 9.0254,-4.04481 9.0254,-9.02539 0,-4.98047 -4.04377,-9.00782 -9.02344,-9.00782 z"
       transform="matrix(0.83878663,0,0,0.83878663,41.270622,79.630622)"
       sodipodi:nodetypes="ccsssccccccccsscccccccccsscsssscccccccccccccccccccccccccccssssss" />
  </g>
  <g
     id="g2463"
     transform="matrix(0.54391041,0,0,0.54391041,378.53881,178.41283)">
    <g
       class=""
       id="g2452" />
  </g>
</svg>
