<?xml version="1.0" encoding="UTF-8" standalone="no"?>
<svg
   style="height: 512px; width: 512px;"
   viewBox="0 0 512 512"
   version="1.1"
   id="svg8"
   sodipodi:docname="dna_lock.svg"
   inkscape:version="1.1.1 (3bf5ae0d25, 2021-09-20)"
   xmlns:inkscape="http://www.inkscape.org/namespaces/inkscape"
   xmlns:sodipodi="http://sodipodi.sourceforge.net/DTD/sodipodi-0.dtd"
   xmlns="http://www.w3.org/2000/svg"
   xmlns:svg="http://www.w3.org/2000/svg">
  <defs
     id="defs12">
    <filter
       style="color-interpolation-filters:sRGB;"
       inkscape:label="Drop Shadow"
       id="filter950"
       x="-0.2297591"
       y="-0.16521739"
       width="1.4474256"
       height="1.3217391">
      <feFlood
         flood-opacity="1"
         flood-color="rgb(58,63,94)"
         result="flood"
         id="feFlood940" />
      <feComposite
         in="flood"
         in2="SourceGraphic"
         operator="out"
         result="composite1"
         id="feComposite942" />
      <feGaussianBlur
         in="composite1"
         stdDeviation="30"
         result="blur"
         id="feGaussianBlur944" />
      <feOffset
         dx="-4"
         dy="-4"
         result="offset"
         id="feOffset946" />
      <feComposite
         in="offset"
         in2="SourceGraphic"
         operator="atop"
         result="composite2"
         id="feComposite948" />
    </filter>
    <filter
       style="color-interpolation-filters:sRGB;"
       inkscape:label="Drop Shadow"
       id="filter989"
       x="-0.10930704"
       y="-0.078601565"
       width="1.2186141"
       height="1.1572031">
      <feFlood
         flood-opacity="1"
         flood-color="rgb(58,63,94)"
         result="flood"
         id="feFlood979" />
      <feComposite
         in="flood"
         in2="SourceGraphic"
         operator="out"
         result="composite1"
         id="feComposite981" />
      <feGaussianBlur
         in="composite1"
         stdDeviation="15.0653"
         result="blur"
         id="feGaussianBlur983" />
      <feOffset
         dx="0"
         dy="0"
         result="offset"
         id="feOffset985" />
      <feComposite
         in="offset"
         in2="SourceGraphic"
         operator="atop"
         result="composite2"
         id="feComposite987" />
    </filter>
  </defs>
  <sodipodi:namedview
     id="namedview10"
     pagecolor="#505050"
     bordercolor="#eeeeee"
     borderopacity="1"
     inkscape:pageshadow="0"
     inkscape:pageopacity="0"
     inkscape:pagecheckerboard="0"
     showgrid="false"
     inkscape:zoom="1"
     inkscape:cx="449.5"
     inkscape:cy="380.5"
     inkscape:window-width="1716"
     inkscape:window-height="1414"
     inkscape:window-x="3160"
     inkscape:window-y="587"
     inkscape:window-maximized="1"
     inkscape:current-layer="svg8" />
  <path
     d="M0 0h512v512H0z"
     fill="#b90202"
     fill-opacity="1"
     id="path2"
     style="fill:#1b1f21;fill-opacity:1" />
  <g
     class=""
     transform="translate(0,-3.15e-5)"
     id="g6"
     style="filter:url(#filter989)">
    <path
       id="path4"
       d="M 256 26 C 176.3506 26 111.78125 90.569294 111.78125 170.21875 L 111.78125 212.41211 L 90.609375 212.41211 L 90.609375 295.99023 C 106.51997 301.53379 120.32788 312.05294 131.6875 325.44141 C 140.28086 300.21657 155.79376 285.76445 176.67188 284.46875 C 194.2787 283.37567 214.27855 291.41783 235.60352 307.64258 C 236.49208 308.31813 237.38422 309.00344 238.27734 309.70898 C 241.25241 312.05627 244.25072 314.56388 247.27344 317.22656 C 249.03736 302.77821 255.46584 292.13933 264.84961 285.54102 C 276.44565 277.38904 292.11567 275.39136 308.15039 278.25195 C 322.18218 280.75627 336.71569 287.03325 349.42383 296.45312 C 361.53676 305.42992 371.99542 317.26865 378.82812 331.42773 C 389.59109 318.48317 401.59859 311.92853 414.29102 310.50586 C 416.65694 310.24091 419.02402 310.17779 421.39062 310.25391 L 421.39062 212.41211 L 400.21875 212.41211 L 400.21875 170.21875 C 400.21875 90.569294 335.6494 26 256 26 z M 256 70.429688 C 311.11194 70.429688 355.78906 115.10677 355.78906 170.21875 L 355.78906 212.41406 L 355.78906 212.47266 L 156.21094 212.47266 L 156.21094 170.21875 C 156.21094 115.10677 200.88806 70.429688 256 70.429688 z M 179.55273 296.08789 C 172.92277 296.50985 166.83603 298.70669 161.43555 302.77539 L 162.79102 302.70117 L 177.45508 363.56641 C 184.40046 367.26503 190.907 369.71997 196.89648 371 L 179.55273 296.08789 z M 191.75195 297.13867 L 209.08984 371.95508 C 215.68241 371.45522 221.72726 369.18077 227.08203 365.00781 L 212.72656 305.46289 C 205.2126 301.29533 198.19296 298.54601 191.75195 297.13867 z M 298.76758 297.50391 C 294.62616 297.40114 290.65958 297.92224 286.88086 299.09766 L 289.86914 356.99023 C 296.25689 361.70003 302.40113 365.41494 308.23242 368.13086 L 305.29883 298.14453 C 304.51629 298.00892 303.73241 297.90477 302.9668 297.8125 C 301.54825 297.64068 300.14805 297.53816 298.76758 297.50391 z M 317.52734 301.78125 L 320.50391 372.51367 C 322.36496 372.96234 324.17763 373.3023 325.94922 373.51758 C 330.47711 374.06582 334.80849 373.90174 338.9375 373.01367 L 335.79688 311.88477 C 329.42685 307.50481 323.31174 304.14502 317.52734 301.78125 z M 275.12305 305.38086 C 268.96602 310.28308 263.52666 317.55481 258.90625 327.37891 C 258.90542 327.60249 258.90459 327.81815 258.90625 328.04297 C 259.0533 328.20906 259.20266 328.36613 259.34961 328.53125 L 260.11523 329.27148 L 260.09375 329.36914 C 265.92702 335.85545 271.65689 341.61601 277.24805 346.6543 L 275.12305 305.38086 z M 152.93555 311.54297 C 148.32271 317.85916 144.49606 326.17531 141.60938 336.64648 C 149.15606 343.8041 156.42636 349.82797 163.34961 354.75781 L 152.93555 311.54297 z M 226.89258 314.61523 L 236.52344 354.55859 C 240.54015 348.46536 243.89952 340.72347 246.5 331.20312 C 241.32883 326.31194 236.25728 321.86301 231.36133 318.00781 C 230.66269 317.45751 229.96814 316.90814 229.27539 316.38281 C 228.47608 315.77545 227.68416 315.19438 226.89258 314.61523 z M 90.609375 318.36914 L 90.609375 374.19922 L 96.873047 389.81445 C 103.4436 388.01403 109.07447 384.17128 113.90234 378.07617 C 114.17075 377.73859 114.4389 377.38645 114.69922 377.03516 L 90.609375 318.36914 z M 348.35547 321.60156 L 350.73633 368.06836 C 358.23115 363.15673 364.76657 355.01534 370.16797 343.29688 C 362.72579 334.91668 355.41094 327.65446 348.35547 321.60156 z M 414.33008 322.65234 C 404.66172 324.72208 394.88567 331.05262 385.41211 344.23242 C 391.61224 352.48295 397.80298 359.81859 403.90625 366.28516 L 414.33008 322.65234 z M 105.20508 324.19336 L 121.64844 364.18164 C 124.37732 357.26523 126.42718 348.97469 127.66602 339.30273 C 119.76283 333.10632 112.24975 328.09281 105.20508 324.19336 z M 259.18359 344.36133 C 257.12843 374.34591 238.78005 392.06459 214.80469 394.21484 C 190.06965 396.43328 160.41936 382.41368 138.08594 352.91406 C 135.28391 366.72187 130.61417 377.83996 124.05664 386.11914 C 117.81108 394.00281 109.6977 399.21683 100.25195 401.4375 L 90.609375 393.82031 L 90.609375 486 L 421.39062 486 L 421.39062 405.30664 L 420.05078 407.00195 C 402.0556 395.0528 385.31645 379.4848 376.54492 358.84766 C 364.5285 378.27005 347.16267 387.55747 326.59766 385.06641 C 321.06101 384.3962 315.39884 382.92107 309.63086 380.6875 L 308.75781 380.57031 L 308.75 380.33398 C 292.86186 373.9779 276.1912 361.82439 259.18359 344.36133 z M 421.39062 347.27344 L 414.38867 376.60352 C 416.74474 378.73925 419.07756 380.72096 421.39062 382.58008 L 421.39062 347.27344 z "
       transform="translate(0,3.15e-5)"
       style="fill:#e64539;fill-opacity:1" />
  </g>
  <g
     id="g1161"
     transform="matrix(1.3234854,1.0455189,-0.86732177,1.0979119,640.84663,473.22477)"
     style="fill:#b90202;fill-opacity:1">
    <g
       class=""
       id="g1150"
       style="fill:#b90202;fill-opacity:1" />
  </g>
</svg>
