<?xml version="1.0" encoding="UTF-8" standalone="no"?>
<svg
   style="height: 512px; width: 512px;"
   viewBox="0 0 512 512"
   version="1.1"
   id="svg8"
   sodipodi:docname="kerenzikov.svg"
   inkscape:version="1.1.1 (3bf5ae0d25, 2021-09-20)"
   xmlns:inkscape="http://www.inkscape.org/namespaces/inkscape"
   xmlns:sodipodi="http://sodipodi.sourceforge.net/DTD/sodipodi-0.dtd"
   xmlns="http://www.w3.org/2000/svg"
   xmlns:svg="http://www.w3.org/2000/svg">
  <defs
     id="defs12">
    <filter
       style="color-interpolation-filters:sRGB;"
       inkscape:label="Drop Shadow"
       id="filter875"
       x="-0.16822456"
       y="-0.18844773"
       width="1.3275166"
       height="1.3669129">
      <feFlood
         flood-opacity="1"
         flood-color="rgb(58,63,94)"
         result="flood"
         id="feFlood865" />
      <feComposite
         in="flood"
         in2="SourceGraphic"
         operator="out"
         result="composite1"
         id="feComposite867" />
      <feGaussianBlur
         in="composite1"
         stdDeviation="30"
         result="blur"
         id="feGaussianBlur869" />
      <feOffset
         dx="-4.0375"
         dy="-4.02735"
         result="offset"
         id="feOffset871" />
      <feComposite
         in="offset"
         in2="SourceGraphic"
         operator="atop"
         result="composite2"
         id="feComposite873" />
    </filter>
    <filter
       style="color-interpolation-filters:sRGB;"
       inkscape:label="Drop Shadow"
       id="filter967"
       x="-0.075501769"
       y="-0.084589529"
       width="1.1510035"
       height="1.1691791">
      <feFlood
         flood-opacity="1"
         flood-color="rgb(58,63,94)"
         result="flood"
         id="feFlood957" />
      <feComposite
         in="flood"
         in2="SourceGraphic"
         operator="out"
         result="composite1"
         id="feComposite959" />
      <feGaussianBlur
         in="composite1"
         stdDeviation="14.2195"
         result="blur"
         id="feGaussianBlur961" />
      <feOffset
         dx="0"
         dy="0"
         result="offset"
         id="feOffset963" />
      <feComposite
         in="offset"
         in2="SourceGraphic"
         operator="atop"
         result="composite2"
         id="feComposite965" />
    </filter>
  </defs>
  <sodipodi:namedview
     id="namedview10"
     pagecolor="#505050"
     bordercolor="#eeeeee"
     borderopacity="1"
     inkscape:pageshadow="0"
     inkscape:pageopacity="0"
     inkscape:pagecheckerboard="0"
     showgrid="false"
     inkscape:zoom="1.7558594"
     inkscape:cx="256"
     inkscape:cy="256"
     inkscape:window-width="1716"
     inkscape:window-height="1414"
     inkscape:window-x="3160"
     inkscape:window-y="587"
     inkscape:window-maximized="1"
     inkscape:current-layer="svg8" />
  <path
     d="M0 0h512v512H0z"
     fill="#b90202"
     fill-opacity="1"
     id="path2"
     style="fill:#1b1f21;fill-opacity:1" />
  <g
     class=""
     style="fill:#e64539;fill-opacity:1;filter:url(#filter967)"
     transform="translate(0,0)"
     id="g6">
    <path
       d="M256 54.28c-124.603 0-226 101.398-226 226 0 47.864 14.975 92.293 40.465 128.876l29.79-19.86c-17.188-24.545-28.708-53.362-32.696-84.577H96v-18H66.115c-.07-2.14-.115-4.284-.115-6.44 0-45.378 15.816-86.97 42.236-119.598l17.4 17.4 12.727-12.727-18.133-18.132C152.735 114.057 197.335 92.8 247 90.498v29.22h18V90.5c49.665 2.302 94.265 23.56 126.77 56.725l-18.133 18.132 12.726 12.727 17.4-17.4c26.42 32.63 42.237 74.22 42.237 119.6 0 2.154-.044 4.3-.115 6.437H416v18h28.44c-3.987 31.214-15.507 60.03-32.694 84.575l29.79 19.86C467.025 372.574 482 328.146 482 280.282c0-124.602-101.397-226-226-226zm15.83 66.23a144 160 0 0 1 74.608 100.062l49.966-17.568a160 160 0 0 0-4.3-7.012l-5.135 5.153-30.368-30.29-5.76-5.746 7.85-7.874a160 160 0 0 0-86.862-36.726zm156.15 89.844l-175.332 60.6C240.505 272.618 231 283.155 231 295.72c0 13.7 11.3 25 25 25 6.77 0 12.95-2.764 17.473-7.208L427.98 210.354zm-16.513 32.322l-60.713 40.72a144 160 0 0 1-56.6 108.323h76.057a160 160 0 0 0 39.763-68.572H398.48v-52.515h17.022a160 160 0 0 0-4.035-27.957zM128 421.72v36h256v-36H128z"
       fill="#ffffff"
       fill-opacity="1"
       stroke="#ffffff"
       stroke-opacity="1"
       stroke-width="0"
       id="path4"
       style="fill:#e64539;fill-opacity:1" />
  </g>
</svg>
